<svg width="25" height="24" viewBox="0 0 25 24" fill="none" xmlns="http://www.w3.org/2000/svg">
<path d="M6.13332 2L3.13332 6V20C3.13332 20.5304 3.34403 21.0391 3.7191 21.4142C4.09418 21.7893 4.60288 22 5.13332 22H19.1333C19.6637 22 20.1725 21.7893 20.5475 21.4142C20.9226 21.0391 21.1333 20.5304 21.1333 20V6L18.1333 2H6.13332Z" stroke="#7E7E7E" stroke-width="2" stroke-linecap="round" stroke-linejoin="round"/>
<path d="M3.13332 6H21.1333" stroke="#7E7E7E" stroke-width="2" stroke-linecap="round" stroke-linejoin="round"/>
<path d="M16.1333 10C16.1333 11.0609 15.7119 12.0783 14.9617 12.8284C14.2116 13.5786 13.1942 14 12.1333 14C11.0725 14 10.055 13.5786 9.30489 12.8284C8.55474 12.0783 8.13332 11.0609 8.13332 10" stroke="#7E7E7E" stroke-width="2" stroke-linecap="round" stroke-linejoin="round"/>
</svg>
