<svg width="26" height="24" viewBox="0 0 26 24" fill="none" xmlns="http://www.w3.org/2000/svg">
<path d="M25.8667 11.9788C25.8668 14.5097 25.0681 16.9761 23.5843 19.0264C22.1006 21.0768 20.0076 22.6065 17.6035 23.3977C15.1994 24.1888 12.6069 24.2009 10.1956 23.4323C7.78419 22.6637 5.67693 21.1536 4.17409 19.1172L5.6628 18.0168C7.02097 19.8614 8.96203 21.1936 11.1716 21.7975C13.3813 22.4015 15.73 22.2419 17.8377 21.3446C19.9453 20.4473 21.6883 18.8648 22.7845 16.8535C23.8806 14.8421 24.2658 12.5196 23.8775 10.2621C23.4892 8.00458 22.3503 5.94421 20.6451 4.41465C18.94 2.88509 16.7684 1.97589 14.4821 1.83429C12.1958 1.69269 9.92869 2.32698 8.04782 3.63445C6.16694 4.94192 4.78248 6.846 4.11861 9.03836L5.04327 8.43733L6.0789 9.97227L3.30491 11.8216C3.14146 11.9318 2.94707 11.9869 2.75011 11.9788C2.59865 11.979 2.44945 11.942 2.31563 11.8711C2.18181 11.8001 2.06746 11.6974 1.98264 11.5719L0.133316 8.79795L1.66826 7.76233L2.29703 8.68699C3.09929 5.90764 4.87694 3.51082 7.30377 1.93637C9.7306 0.361916 12.6438 -0.284559 15.5088 0.115576C18.3738 0.515711 20.9985 1.93561 22.9011 4.11473C24.8037 6.29384 25.8566 9.08598 25.8667 11.9788ZM12.9214 5.50615V11.9788C12.9207 12.1005 12.944 12.2211 12.99 12.3338C13.0361 12.4464 13.1039 12.5489 13.1896 12.6353L15.9635 15.4093L17.2766 14.0963L14.7707 11.5997V5.50615H12.9214Z" fill="#7E7E7E"/>
</svg>
