<svg width="25" height="24" viewBox="0 0 25 24" fill="none" xmlns="http://www.w3.org/2000/svg">
<path d="M21.1333 18.75V12.1301C21.1333 10.9814 21.1333 10.4071 20.9853 9.87813C20.8541 9.4096 20.6386 8.96892 20.3493 8.57774C20.0227 8.13614 19.5693 7.78352 18.6626 7.07828L16.0626 5.05606L16.0625 5.05605C14.6572 3.96305 13.9546 3.41654 13.1787 3.20647C12.4941 3.02111 11.7725 3.02111 11.0879 3.20647C10.3121 3.41654 9.60941 3.96305 8.20411 5.05606L5.60411 7.07828C4.69737 7.78352 4.244 8.13614 3.91739 8.57774C3.62806 8.96892 3.41253 9.4096 3.28139 9.87813C3.13333 10.4071 3.13333 10.9814 3.13333 12.1301V18.75C3.13333 19.4478 3.13333 19.7967 3.21945 20.0806C3.41335 20.7198 3.91356 21.22 4.55276 21.4139C4.83666 21.5 5.18555 21.5 5.88333 21.5H6.50833C6.6244 21.5 6.68243 21.5 6.73147 21.4976C7.75887 21.4471 8.58045 20.6255 8.63092 19.5981C8.63333 19.5491 8.63333 19.4911 8.63333 19.375V16.5C8.63333 14.567 10.2003 13 12.1333 13C14.0663 13 15.6333 14.567 15.6333 16.5V19.375C15.6333 19.4911 15.6333 19.5491 15.6357 19.5981C15.6862 20.6255 16.5078 21.4471 17.5352 21.4976C17.5842 21.5 17.6423 21.5 17.7583 21.5H18.3833C19.0811 21.5 19.43 21.5 19.7139 21.4139C20.3531 21.22 20.8533 20.7198 21.0472 20.0806C21.1333 19.7967 21.1333 19.4478 21.1333 18.75Z" stroke="#7E7E7E" stroke-width="2"/>
</svg>
