<?xml version="1.0" encoding="UTF-8"?>
<svg id="Layer_1" data-name="Layer 1" xmlns="http://www.w3.org/2000/svg" viewBox="0 0 463.11 139.4">
  <path d="m148.47,48.97c3.93-10.88,12.65-15.08,23.25-16.13,4.93-.49,10.15-1.56,14.79,1.63.34.23,1.14.25,1.46,0,3.88-2.99,8.32-.75,12.44-1.4,1.83-.29,1.69,1.12,1.78,2.27-1.18,9.83-2.25,19.68-3.58,29.49-1.96,14.46-4.01,28.91-6.24,43.33-.91,5.88-3.54,10.83-9.12,13.86-5.22,2.84-10.9,3.41-16.62,3.93-4.57.42-9.09-.38-13.64-.57-8.67-3.38-13.74-10.6-13.32-18.66.12-2.27.74-3.3,3.22-3.09,2.72.22,5.47.09,8.21.05,1.28-.02,2.43-.01,2.14,1.79,1.33,2.1-.26,5.78,3.55,6.52,6.98,5.56,18.73,1.56,20.62-6.99.53-2.4-.36-2.92-2.6-2.49-6.72,1.28-13.37.9-19.49-2.24-5.34-2.74-10.1-6.32-11.67-12.67.04-4.15-.48-8.29.59-12.44.23-.89,1.65-3.62-1.48-3.6-10.56.04-21.13.16-31.69.22-7.05.04-7.11.02-7.24,7.35-.05,2.86-.93,6.17,2.89,7.63,3.08,2.41,6.74,1.57,10.17,1.62,6.58.09,9.54-2.24,11.35-8.53.53-1.86.81-3.79,1.21-5.69,1.56-.05,3.12-.13,4.68-.14q9.45-.06,7,9.14c-2.94,11.06-11.52,17.64-23.09,17.8-5.96.08-11.91-.04-17.86-.53-9.31-4.38-11.45-7.84-10.42-19.48.82-9.34,1.71-18.71,3.77-27.9,2.61-11.64,10.24-18.6,22.07-20.28,4.46-.63,8.88-.38,13.32.15,6.54.79,11.41,4.2,15.07,9.52,1.74,5.18,1.46,10.6,2.19,16.05.76-3.17,1.52-6.35,2.28-9.52Zm-21.08-2.66c-.28-1.17-1.11-1.8-2.22-1.9-8.12-.74-15.91.7-18.09,11.17-.62,2.97.26,3.9,3.09,3.41,6.01,0,12.01.03,18.02-.02.97,0,2.08.35,2.86-.73,2.35-3.26.16-10.46-3.65-11.94Zm31.96,41.26c3.55,2.81,7.74,1.71,11.69,1.76,5.94.07,7.88-1.54,9.58-7.14,2.46-8.1,3.49-16.49,4.44-24.84.37-3.23,2.06-7.36-1.96-10-.28-2.13-2.26-1.73-3.4-1.86-9.92-1.11-15.11-.93-18.14,7.56-3.41,9.58-4.23,19.77-4.82,29.88-.1,1.62-.11,4.15,2.62,4.62Zm-15.36-20.17c.09.56.26.91.73.76.16-.05.35-.43.31-.61-.07-.3-.33-.55-.5-.82-.2.25-.4.5-.54.67Z" style="fill: #4e5769; stroke-width: 0px;"/>
  <path d="m361.95,100.47c-5.72-2.27-10.1-5.8-11.45-12.18,0-2.86-1.09-5.6-.73-8.52,1.2-9.78,2.2-19.58,4.71-29.15,0,0,.02-.05.02-.04.86-.55.8-1.43.81-2.28,2.96-7.26,8.78-11.48,15.94-13.33,10.82-2.79,21.55-3.02,30.66,5.2,2.62,2.36,4.49,5.29,6.33,8.9,2.4-12.12,3.74-23.84,5.51-35.48.19-1.27-.29-3.08,1.8-3.43.39.02.78.05,1.17.07,2.88-.02,5.76-.07,8.64-.05,1.11,0,2.51-.3,2.56,1.54-.79,6.99-1.58,13.98-2.37,20.96-.33,2.87,1.11,2.36,2.76,1.44,4.93-.66,9.85-1.25,14.85-.53,7.25,1.05,12.51,4.91,16.21,11.1.68,5.01,1.69,10.02.98,15.09-1.74,12.52-3.63,25.02-5.38,37.53-.44,3.13-1.55,4.97-5.2,4.41-2.17-.33-4.44,0-6.66.03-1.84.07-1.92-.07-1.84-2.41.34-9.55,2.64-18.79,3.49-28.24.45-5.04,1.97-9.96,1.69-15.09-.15-2.65-.56-5.13-3-6.74-4.41-3.55-9.15-2.38-13.59-.44-7.32,3.19-8.87,10.18-10.05,17.07-1.43,8.35-2.45,16.77-3.76,25.14-.54,3.43.36,8.18-2.02,9.94-2.35,1.73-6.77.67-10.29.83-1.6-.11-3.17,0-2.45-2.59.62-2.24.69-4.64,1.01-6.97,1.38-5.23,1.51-10.64,2.26-15.95.31-2.05.63-4.1.92-6.15q1.08-7.62-6.73-7.88c-3.71-.12-5.46-2.39-5.2-6.18.25-3.7.86-7.7-3.62-9.71-3.01-3.83-7.24-2.15-10.86-2.01-5.69.22-10.29,2.81-12.03,8.78-2.9,9.91-4.39,20.02-3.99,30.36.08,2.08.52,4.22,3.13,4.78,3.49,2.09,7.34,1.55,11.08,1.38,6.86-.32,9.47-2.72,10.89-9.48q1.26-6.02,7.56-6.1c1.7-.02,3.42.11,5.09-.1,2.07-.26,2.47.82,2.44,2.47-1.65,1.86-.65,4.25-1.26,6.36-3.19,11.07-10.89,17.02-22.51,17.36-5.84.17-11.7-.65-17.53.28Z" style="fill: #4e5769; stroke-width: 0px;"/>
  <path d="m305.34,101.29c-3.82-1.96-7.24-4.34-8.98-8.48-.15-.47-.3-.93-.44-1.4-.63-14.71,1.51-29.07,5.46-43.21.65-.72,1.43-1.38,1.23-2.51,7.46-11.64,18.83-12.89,31.13-11.77,7.58.69,13.15,4.44,17.03,10.88,1.36,7.9-.13,15.68-.98,23.49-.33,2.99-1.23,4.57-4.77,4.47-9.66-.27-19.32-.1-28.99-.12-5.85-.01-6.15.09-6.2,6.03-.03,3.14-1.43,6.95,2.7,8.94.39.34.72.8,1.17,1,10,4.42,18.97-.07,21.22-10.61.21-1,.34-2.03.51-3.04,3.53-.01,7.07.14,10.59-.09,2.69-.18,3.35,1.13,2.76,3.26-1.22,4.38-2.5,8.72-4.84,12.73-2.39,4.11-5.33,7.45-9.81,9.14-6.35,2.39-12.93,2.67-19.66,2.2-3.06-.21-6.01-1.4-9.12-.9Zm29.54-53.29c-.3-.41-.51-1.02-.91-1.2-8.14-3.68-19.26-1.23-21.12,10.61-.42,2.65,1.19,2.75,3.09,2.56,6.11.03,12.22.09,18.32.08,1.06,0,2.71.49,2.84-1.19.28-3.79,1.47-7.84-2.22-10.85Z" style="fill: #4e5769; stroke-width: 0px;"/>
  <path d="m213.85,46.49c-4.79-2.41-2.71-6.83-3.04-10.52-.16-1.86,1.31-2,2.66-2.06,8.09-.36,16.18-1.2,24.29-.33,6.49.69,11.68,3.5,15.19,9.12-1.04.93-.34,1.89-.09,2.87.6,2.41,1.23,4.84.89,7.34-2,14.43-4.25,28.82-5.95,43.28-.48,4.06-2,4.91-5.64,4.7-4.06-.24-8.15-.7-12.15-.67-3.29.02-6.71.5-10.07.76-3.29.25-6.41-1.39-9.69-.53-4.89-1.67-8.59-4.83-11.43-9.07-.6-1.94-1.78-3.59-1.67-5.86.34-7.32.94-14.51,5.66-20.61,4.49-5.76,10.84-7.92,17.69-8.91,4.9-.71,9.85-1,14.82-.98,1.5,0,4.08,1.39,4.37-1.58.25-2.51.6-5.46-3.1-6.15-.16-.35-.26-.94-.5-1-7.09-1.93-14.26-1.42-21.43-.58-.3.03-.54.53-.81.8Zm24.11,22.28c.38-1.85-.36-2.65-2.26-2.59-3.38.1-6.81-.21-10.15.22-5.76.75-11.25,2.14-14.18,8.14-2.25,4.62-1.96,8.96,1.22,11.55,2.51,4.78,7.02,3.39,10.98,3.47,7.3.14,11.86-3.67,13.01-10.75.54-3.33.93-6.69,1.38-10.03Z" style="fill: #4e5769; stroke-width: 0px;"/>
  <path d="m287.74,33.89c3.18,0,6.36,0,9.54,0,1.17,0,2.41-.12,2.18,1.69,0,2.08-.06,4.17,0,6.25.08,3.01-1.27,4.22-4.3,3.97-2.44-.2-4.92-.12-7.37,0-2.97.15-6.57-1.23-8.76.57-2.38,1.96-1.55,5.84-1.91,8.88-1.06,9.04-1.88,18.1-2.75,27.16-.23,2.35.1,4.5,2.96,5.12.61.45,1.28,1.34,1.83,1.28,3.93-.45,7.62,1.81,11.55.95,1.55-.34,2.03.61,2.33,1.83-.23,1.79-.73,3.6-.63,5.37.17,3.2-1.32,3.84-4.22,3.92-5.6.16-11.05-1.03-16.59-1.28-8.06-3.56-10.71-7.74-10.42-16.41.37-10.97,2.36-21.77,3.71-32.63.27-2.19.08-3.02-2.33-3.1-4.25-.14-5.9-2.17-5.59-6.32.06-.78.13-1.56.12-2.34-.03-3.75,1.43-5.8,5.52-4.98,4.11.82,5.68-1.07,6.07-5.05.51-5.18,1.58-10.31,2.33-15.47.27-1.89.78-3.09,3.12-2.93,2.15.14,4.33.18,6.5-.67,1.57-.61,3.13-.02,3.25,2.16-1.07,6.2-2.15,12.4-3.21,18.6-.44,2.6.31,4.08,3.29,3.35.92.02,1.83.04,2.75.06.35,0,.71.01,1.06.02Z" style="fill: #4e5769; stroke-width: 0px;"/>
  <path d="m270.36,109.8c-3.98,9.46-7.93,18.83-11.88,28.2-.86,2.03-2.68,1.26-4.12,1.26-34.84.04-69.69.02-104.53.02-20.83,0-41.65.01-62.48.02-1.52,0-3.03,0-5.15,0,2.34-3.18,4.86-3.93,8.05-3.92,42.83.07,85.67-.17,128.5.17,11.42.09,20.27-4.03,27.77-12.09,2.76-2.97,5.52-5.95,8.28-8.92,4.16-4.46,9.19-6.18,15.55-4.74Z" style="fill: #808d99; stroke-width: 0px;"/>
  <path d="m67.73,74.91c-1.97,4.52-3.84,9.09-5.93,13.55-1.11,2.37-2.29,3.07-4.2.2-10.49-15.72-21.15-31.33-31.79-46.94-.59-.86-.84-2.24-2.32-2.24,0,0,.05.08.05.08.23-1.33-.29-2.15-1.63-2.43l.06.08c.37-1.54-.81-2.28-1.64-3.21l.06.06c-.54-.8-1.09-1.61-1.63-2.41l.06.05c-.26-.74-.89-.71-1.5-.69.46-2.18-.27-3.79-2.28-4.79C10.21,18.74,5.4,11.27.57,3.82c-.33-.52-1.04-.91-.1-1.47,4.52,3.36,8.22,7.53,12.07,11.63,17.58,18.75,34.48,38.12,51.77,57.12,1.14,1.25,1.07,3.67,3.42,3.81Z" style="fill: #4e5769; stroke-width: 0px;"/>
  <path d="m57.09,116.99c-2.66,1.19-4.76,3.83-6.49,2.37-1.34-1.13,1.06-3.58,1.87-5.38,14.14-31.72,28.32-63.42,42.54-95.11,2.46-5.48,5.16-10.85,7.59-16.33C103.52.45,105.23.02,107.03,0c4.45-.04,8.9.18,13.36.27,1.69.04,3.61.91,3.59,2.21-.02,1.19-1.92,2.27-3.7,1.94-6.88-1.3-9.89,2.49-12.8,8.21-17.01,33.33-34.43,66.46-51.7,99.66-.86,1.65-2.85,3.58,1.32,4.7Z" style="fill: #4e5769; stroke-width: 0px;"/>
  <path d="m78.78,50.7c-1.72,3.77-3.6,7.49-5.11,11.35-.98,2.48-2.24,4.68-4.26,6.79C50.87,49.16,32.33,29.51,13.79,9.85c.71-1.75,1.79-.61,2.5-.16,2.96,1.87,5.83,3.88,8.74,5.83,13.62,9.12,27.16,18.36,40.92,27.27,4.2,2.72,7.84,6.44,12.83,7.9Z" style="fill: #4e5769; stroke-width: 0px;"/>
  <path d="m57.83,96.89c-2.25,5.15-4.52,10.29-6.74,15.45-.48,1.11-1.28,2.3-2.25,2.39-1.13.11-1.27-1.49-1.65-2.4-9-21.7-17.95-43.41-26.93-65.11-2.14-5.16-4.35-10.29-6.53-15.44-.44-1.03-1.08-2.03-.55-3.23,3.12,4.6,6.39,9.11,9.35,13.8,9.31,14.77,18.44,29.64,27.78,44.38,2.25,3.54,3.82,7.65,7.52,10.15Z" style="fill: #4e5769; stroke-width: 0px;"/>
  <path d="m431.51,138.23c-.95-7.17-1.75-13.23-2.55-19.29-.15-.02-.3-.04-.46-.06-1.33,5.39-2.65,10.79-4,16.18-.22.88-.38,1.82-.83,2.59-1.02,1.76-2.83,1.18-4.24.92-2.02-.37-.74-1.89-.5-2.81,1.74-6.83,3.55-13.64,5.4-20.44.53-1.95,6.74-4.35,8.15-3.13.46.4.32,1.45.5,2.19.73,2.99.32,6.19,1.85,9.92,1.9-3.7,3.45-6.77,5.05-9.82,1.48-2.81,5.01-4.12,7.85-3.09,1.46.53,1.11,1.6.98,2.57-1.03,7.5-2.16,14.99-3.13,22.5-.41,3.22-2.79,2.19-4.49,2.18-2.2-.01-1.33-1.69-1.15-2.9.67-4.48,1.34-8.97,2.01-13.45l-1.25-.54c-2.88,5.17-5.76,10.34-9.18,16.49Zm10.45-18.82c-.09.24-.19.45-.22.67-.01.07.16.16.24.24.11-.16.3-.31.32-.48.01-.13-.2-.27-.34-.43Z" style="fill: #808d99; stroke-width: 0px;"/>
  <path d="m340.41,139.37c-1.95-.16-3.9-.27-5.85-.48-1.84-.2-3.24-.58-2.54-3.16.58-2.15,1.34-2.5,3.48-2.02,3.56.79,7.11,2.89,10.93.68,1.46-.84,3.38-1.23,3.34-3.36-.05-2.18-2.1-2.46-3.58-3.11-1.66-.73-3.41-1.3-5.17-1.75-2.93-.75-5.09-2.28-5.29-5.45-.21-3.29,1.43-5.78,4.28-7.37,5.2-2.9,10.8-2.58,16.44-1.95,1.85.21,1.88,1.37,1.75,2.81-.15,1.69-1.06,2.41-2.61,2.02-2.84-.7-5.71-.81-8.57-.46-1.68.2-3.58.79-3.75,2.84-.17,2,1.7,2.37,3.17,2.89,2.09.75,4.25,1.34,6.28,2.2,5.63,2.4,6.42,7.82,1.72,11.8-4.06,3.44-8.92,4.07-14.02,3.86Z" style="fill: #808d99; stroke-width: 0px;"/>
  <path d="m282.01,139.37c-1.95-.15-3.92-.17-5.85-.47-1.65-.26-3.5-.03-2.81-3.15.65-2.91,1.98-2.47,3.79-1.91,3.19.99,6.48,1.03,9.71.61,2.04-.26,4.32-1.04,4.44-3.66.11-2.32-2.27-2.14-3.64-2.82-1.74-.86-3.68-1.32-5.52-2-2.57-.95-4.88-2.38-5.06-5.36-.17-2.91,1.28-5.31,3.77-6.89,5.47-3.45,11.49-2.98,17.5-2.25,1.67.2,1.37,1.38,1.12,2.67-.28,1.48-.59,2.65-2.4,2.12-3.09-.9-6.21-.81-9.33-.43-1.41.17-2.92.78-3.2,2.46-.32,1.9,1.31,2.41,2.61,2.89,3.04,1.12,5.92,2.41,8.58,4.37,3.12,2.3,3.88,4.3,1.88,7.62-2.64,4.4-7,5.58-11.68,6.04-1.29.13-2.61.02-3.92.02,0,.04,0,.08,0,.12Z" style="fill: #808d99; stroke-width: 0px;"/>
  <path d="m312.52,87.6c-4.12-1.99-2.73-5.8-2.7-8.94.05-5.93.35-6.04,6.2-6.03,9.66.02,19.33-.14,28.99.12,3.54.1,4.45-1.48,4.77-4.47.85-7.81,2.35-15.59.98-23.49,2.26,1.3,1.81,4.31,3.7,5.84-2.51,9.56-3.51,19.37-4.71,29.15-.36,2.92.74,5.66.73,8.52-1.35-.48-1.53.62-1.85,1.42-3.68,9.24-10.74,14.01-20.41,14.75-7.8.6-15.71,1.02-22.9-3.18,3.11-.5,6.06.69,9.12.9,6.73.47,13.32.19,19.66-2.2,4.47-1.68,7.42-5.03,9.81-9.14,2.33-4.02,3.62-8.35,4.84-12.73.59-2.13-.06-3.43-2.76-3.26-3.52.23-7.06.08-10.59.09-6.15.03-12.31.28-18.45.02-3.25-.14-4.14,1.15-4.12,4.04.02,2.86-.21,5.73-.32,8.59Z" style="fill: #808d99; stroke-width: 0px;"/>
  <path d="m202.8,64.89c-4.72,6.1-5.32,13.28-5.66,20.61-.11,2.27,1.07,3.93,1.67,5.86-2.24,3.7-1.44,8.04-2.52,11.99-.68,2.5-.99,5.11-1.4,7.68-1.17,7.38-5.27,12.27-12.32,14.78-8.34,2.97-16.85,3.3-25.46,1.58-1.49-.3-3.08-.65-4.12-2,4.55.18,9.07.99,13.64.57,5.72-.53,11.4-1.1,16.62-3.93,5.57-3.03,8.21-7.98,9.12-13.86,2.23-14.42,4.27-28.87,6.24-43.33,1.33-9.81,2.39-19.66,3.58-29.49,2.15-.09,2.82.69,2.5,3-1.02,7.3-1.83,14.63-2.55,21.97-.14,1.48-1.32,3.31.67,4.56Z" style="fill: #808d99; stroke-width: 0px;"/>
  <path d="m402.06,138.67c-2.42-.23-6.76,1.42-8.6-.7-1.78-2.05.5-6.04,1.07-9.15.91-4.99,2.1-9.93,2.93-14.94.31-1.88,1.13-2.32,2.83-2.3,5.1.06,10.19,0,15.29.02,1.12,0,2.56-.31,2.51,1.54-.04,1.61-.65,2.75-2.56,2.72-3-.05-6.04.25-9.01-.07-4.55-.49-3.45,3.28-3.81,5.28-.48,2.63,2.14,1.42,3.41,1.56,2.07.22,4.18.02,6.27.08,1.22.03,2.85-.39,2.74,1.74-.09,1.77-1.12,2.49-2.85,2.46-2.61-.05-5.24.15-7.84-.07-4.96-.43-3.7,3.74-4.1,5.99-.52,2.93,2.34,1.46,3.68,1.61,2.32.25,4.7.04,7.05.09,1.09.02,2.58-.38,2.37,1.6-.15,1.4-.58,2.56-2.33,2.54-2.74-.02-5.49,0-9.04,0Z" style="fill: #808d99; stroke-width: 0px;"/>
  <path d="m333.7,111.98c-3.76,4.52-7.35,9.09-11.23,13.4-2.59,2.88-3.88,6.21-4.1,9.88-.25,4.14-3.06,3.72-5.57,3.34-3-.45-1.32-2.71-.87-3.97,2.06-5.79-1.42-10.32-3.22-15.22-.4-1.1-1.22-2.1-1.42-3.21-.27-1.57-2.78-3.19-.64-4.65,2.31-1.58,6.03.2,7.06,2.9.89,2.32,1.94,4.58,2.73,6.92.72,2.15,1.42,1.69,2.51.28,1.92-2.47,3.92-4.88,5.92-7.29,2.89-3.49,3.52-3.65,8.82-2.37Z" style="fill: #808d99; stroke-width: 0px;"/>
  <path d="m100.18,100.43c5.94.49,11.89.62,17.86.53,11.57-.16,20.15-6.74,23.09-17.8q2.45-9.19-7-9.14c-1.56,0-3.12.09-4.68.14-3.27-.02-6.55-.17-9.81-.02-3.98.18-8.98-1.77-11.69.85-2.77,2.68-.94,7.75-1.22,11.76-3.82-1.45-2.94-4.76-2.89-7.63.13-7.33.19-7.31,7.24-7.35,10.56-.06,21.13-.17,31.69-.22,3.13-.01,1.71,2.71,1.48,3.6-1.07,4.15-.55,8.29-.59,12.44-1.22.4-1.17,1.6-1.62,2.5-3.25,6.56-8.12,11.12-15.54,12.47-7.4,1.35-14.81,1.14-22.17-.28-1.47-.28-3.17-.38-4.15-1.87Z" style="fill: #808d99; stroke-width: 0px;"/>
  <path d="m210.25,100.43c3.28-.86,6.4.78,9.69.53,3.37-.26,6.78-.74,10.07-.76,4-.02,8.09.44,12.15.67,3.64.21,5.16-.63,5.64-4.7,1.7-14.46,3.95-28.86,5.95-43.28.35-2.49-.28-4.93-.89-7.34-.25-.98-.94-1.94.09-2.87,3.19,2.79,3.24,6.66,3.31,10.38.17,8.81-1.87,17.39-2.95,26.07-.83,6.6-1.99,13.16-2.87,19.75-.39,2.94-1.18,4.5-4.81,4.37-8.06-.29-16.14-.67-24.23-.14-3.85.25-7.8-.31-11.16-2.69Z" style="fill: #808d99; stroke-width: 0px;"/>
  <path d="m378.03,111.6c3.41,0,6.81,0,10.22,0,1.14,0,2.49-.27,2.47,1.59-.02,1.71-.66,2.5-2.57,2.63-7.29.5-7.26.58-8.63,7.71-.79,4.1-1.84,8.15-2.45,12.28-.54,3.64-3.15,3.01-5.33,2.77-2.87-.32-1.49-2.44-1.21-3.93,1.02-5.39,2-10.78,3.21-16.13.5-2.19-.09-2.91-2.22-2.75-1.04.08-2.1.09-3.14,0-1.27-.11-3.06.64-3.01-1.86.05-2.37,1.58-2.31,3.22-2.3,3.14.01,6.29,0,9.43,0v-.02Z" style="fill: #808d99; stroke-width: 0px;"/>
  <path d="m403.74,101.82c3.51-.16,7.93.9,10.29-.83,2.39-1.76,1.49-6.5,2.02-9.94,1.31-8.37,2.33-16.79,3.76-25.14,1.18-6.89,2.73-13.87,10.05-17.07,4.44-1.94,9.18-3.11,13.59.44-.13.04-.25.09-.38.11-14.58,1.41-18,4.42-20.48,19.02-1.7,10-3.01,20.08-4.35,30.14-.72,5.45-.58,5.47-5.97,5.47-2.09,0-4.18-.11-6.26.01-1.71.1-2.43-.55-2.28-2.22Z" style="fill: #808d99; stroke-width: 0px;"/>
  <path d="m277.32,87.55c-2.86-.63-3.18-2.77-2.96-5.12.87-9.06,1.69-18.12,2.75-27.16.36-3.04-.47-6.92,1.91-8.88,2.19-1.8,5.79-.43,8.76-.57,2.45-.12,4.93-.2,7.37,0,3.04.25,4.38-.96,4.3-3.97-.06-2.08,0-4.17,0-6.25,2.69.3,4.02,1.32,3.18,4.41-.48,1.77-.05,3.79-.04,5.69.2,1.14-.58,1.79-1.23,2.51-5.86-.07-11.72-.12-17.58-.23-1.69-.03-2.83.53-2.98,2.31-1.02,12.43-3.68,24.72-3.5,37.26Z" style="fill: #808d99; stroke-width: 0px;"/>
  <path d="m67.73,74.91c-2.35-.14-2.28-2.55-3.42-3.81C47.01,52.1,30.12,32.73,12.54,13.98,8.69,9.88,4.99,5.71.47,2.35.79-.11,1.49-.38,3.34,1.51c12.87,13.13,25.18,26.78,37.51,40.4,8.32,9.19,16.65,18.36,24.79,27.71,1.15,1.32,4.3,2.43,2.09,5.3Z" style="fill: #808d99; stroke-width: 0px;"/>
  <path d="m443.11,101.77c2.22-.03,4.5-.37,6.66-.03,3.66.56,4.77-1.28,5.2-4.41,1.76-12.52,3.64-25.01,5.38-37.53.71-5.07-.3-10.08-.98-15.09,2.99,2.35,3.29,5.77,3.57,9.16.66,7.78-1.01,15.37-2.03,23.01-1.08,8.03-2.46,16.02-3.47,24.05-.29,2.27-.88,3.29-3.31,3.13-2.74-.19-5.5-.13-8.25-.01-1.74.08-2.81-.34-2.78-2.27Z" style="fill: #808d99; stroke-width: 0px;"/>
  <path d="m78.78,50.7c-4.99-1.46-8.63-5.17-12.83-7.9-13.75-8.92-27.3-18.16-40.92-27.27-2.91-1.95-5.78-3.96-8.74-5.83-.71-.45-1.79-1.59-2.5.16-.89-.54-1.59-1.24-1.94-2.24.32-.22.63-.44.95-.65,1.56-.62,2.86-.3,4.3.66,19.79,13.32,39.64,26.56,59.41,39.9.99.67,3.23.92,2.28,3.17Z" style="fill: #808d99; stroke-width: 0px;"/>
  <path d="m57.83,96.89c-3.7-2.5-5.27-6.61-7.52-10.15-9.35-14.74-18.48-29.62-27.78-44.38-2.96-4.7-6.22-9.21-9.35-13.8,0,0,.05.06.05.06-.12-.21-.15-.42-.09-.65.63-.59,1.25-1.18,1.88-1.76,2.01,1,2.74,2.62,2.28,4.79.34.58.82.85,1.5.69,0,0-.06-.05-.06-.05.05,1.14.03,2.33,1.63,2.41,0,0-.06-.06-.06-.06-.02,1.36.41,2.49,1.64,3.21,0,0-.06-.08-.06-.08.21,1.04.6,1.95,1.63,2.43,0,0-.05-.08-.05-.08,3.64,7.51,8.65,14.19,13,21.27,6.62,10.76,13.52,21.35,20.19,32.07.71,1.14,2.47,2.25,1.16,4.07Z" style="fill: #808d99; stroke-width: 0px;"/>
  <path d="m404.57,76.3c-.76,5.32-.88,10.72-2.26,15.95-6.59,8.26-15.47,10.88-25.6,10.32-4.97-.28-10.17.9-14.75-2.11,5.83-.93,11.69-.11,17.53-.28,11.62-.34,19.32-6.29,22.51-17.36.61-2.11-.38-4.5,1.26-6.36.44-.05.88-.11,1.32-.16Z" style="fill: #808d99; stroke-width: 0px;"/>
  <path d="m271.58,99.62c5.54.24,11,1.43,16.59,1.28,2.9-.08,4.39-.71,4.22-3.92-.1-1.78.4-3.58.63-5.37.96-.07,1.93-.13,2.89-.2.15.47.3.93.44,1.4-1.82,2.32-.49,5.25-1.49,7.74-.36.91-.05,2.37-1.45,2.41-7.47.17-15.05.91-21.85-3.33Z" style="fill: #808d99; stroke-width: 0px;"/>
  <path d="m283.93,33.81c-2.97.72-3.73-.75-3.29-3.35,1.06-6.2,2.14-12.4,3.21-18.6,1.94-.16,2.62.34,2.4,2.63-.6,6.47-2.57,12.77-2.33,19.33Z" style="fill: #808d99; stroke-width: 0px;"/>
  <path d="m428.32,34.14c-1.65.91-3.09,1.43-2.76-1.44.79-6.99,1.58-13.98,2.37-20.96,1.54.61,3.04.94,2.68,3.39-.93,6.32-1.54,12.68-2.28,19.02Z" style="fill: #808d99; stroke-width: 0px;"/>
  <path d="m213.85,46.49c.27-.28.51-.77.81-.8,7.17-.84,14.34-1.35,21.43.58.24.07.34.66.5,1-7.1.05-14.2.1-21.31.15-.66,0-1.29-.1-1.44-.93Z" style="fill: #808d99; stroke-width: 0px;"/>
  <path d="m148.47,48.97c-.76,3.17-1.52,6.35-2.28,9.52-.73-5.45-.45-10.86-2.19-16.05,2.66,1.37,2.31,4.81,4.48,6.52Z" style="fill: #808d99; stroke-width: 0px;"/>
  <path d="m156.8,112.01c-3.81-.75-2.22-4.43-3.55-6.52,4.66.28,3.01,4,3.55,6.52Z" style="fill: #808d99; stroke-width: 0px;"/>
  <path d="m355.3,48.3c0,.85.05,1.73-.81,2.28-.09-.89.08-1.68.81-2.28Z" style="fill: #808d99; stroke-width: 0px;"/>
  <path d="m11.85,7.61c-.1-.3-.36-.77-.27-.86.43-.42.85-.13,1.21.21-.32.22-.63.44-.95.65Z" style="fill: #808d99; stroke-width: 0px;"/>
  <path d="m416.72,10.24c-.39-.02-.78-.05-1.17-.07.41-.38.81-.35,1.17.07Z" style="fill: #808d99; stroke-width: 0px;"/>
  <path d="m13.15,27.96c-.06.23-.03.45.09.65-.18-.02-.48,0-.51-.07-.14-.36-.03-.62.42-.58Z" style="fill: #4e5769; stroke-width: 0px;"/>
  <path d="m287.74,33.89c-.35,0-.71-.01-1.06-.02.36-.38.71-.36,1.06.02Z" style="fill: #808d99; stroke-width: 0px;"/>
  <path d="m183.09,47.36c-2.08.01-4.17.01-6.25.03-7.8.07-11.8,2.91-13.44,10.42-2.13,9.79-4.02,19.66-4.05,29.76-2.73-.47-2.71-3-2.62-4.62.59-10.11,1.41-20.31,4.82-29.88,3.03-8.49,8.21-8.67,18.14-7.56,1.14.13,3.12-.27,3.4,1.86Z" style="fill: #808d99; stroke-width: 0px;"/>
  <path d="m127.39,46.31c-3.78.55-7.7-.02-11.25,2.18-4,2.48-6.03,5.84-5.97,10.5-2.83.49-3.71-.45-3.09-3.41,2.18-10.47,9.97-11.91,18.09-11.17,1.12.1,1.94.73,2.22,1.9Z" style="fill: #808d99; stroke-width: 0px;"/>
  <path d="m143.99,67.4c.14-.17.34-.42.54-.67.18.27.43.52.5.82.04.18-.15.56-.31.61-.47.15-.64-.2-.73-.76Z" style="fill: #808d99; stroke-width: 0px;"/>
  <path d="m389.94,46.38c-3,.07-6.01.01-9,.26-4.6.38-8.83,2.4-10.3,6.72-3.82,11.28-6.22,22.89-4.46,34.95-2.61-.57-3.05-2.71-3.13-4.78-.4-10.34,1.08-20.45,3.99-30.36,1.75-5.97,6.34-8.56,12.03-8.78,3.62-.14,7.85-1.82,10.86,2.01Z" style="fill: #808d99; stroke-width: 0px;"/>
  <path d="m334.89,48c-2.96.15-5.87-.93-8.91.02-6.25,1.94-9.19,5.28-10.03,11.95-1.9.2-3.51.1-3.09-2.56,1.85-11.83,12.98-14.29,21.12-10.61.4.18.61.79.91,1.2Z" style="fill: #808d99; stroke-width: 0px;"/>
  <path d="m237.96,68.77c-5.89-.73-11.67-.32-17.21,1.89-4.99,1.99-7.28,6.02-7.84,11.17-.15,1.41-.22,2.84-.32,4.26-3.17-2.59-3.47-6.93-1.22-11.55,2.93-6,8.42-7.39,14.18-8.14,3.34-.43,6.76-.12,10.15-.22,1.9-.06,2.64.74,2.26,2.59Z" style="fill: #808d99; stroke-width: 0px;"/>
  <path d="m441.96,119.4c.13.16.35.3.34.43-.01.17-.2.32-.32.48-.09-.08-.25-.18-.24-.24.04-.22.13-.42.22-.67Z" style="fill: #fdfdfd; stroke-width: 0px;"/>
</svg>