<?xml version="1.0" encoding="UTF-8"?>
<svg id="Layer_1" data-name="Layer 1" xmlns="http://www.w3.org/2000/svg" viewBox="0 0 478.55 462.4">
  <path d="m261.43,289.17c-7.59,17.45-14.83,35.07-22.9,52.3-4.29,9.15-8.84,11.87-16.23.79-40.48-60.69-81.63-120.93-122.72-181.2-2.27-3.33-20.93-29.61-20.93-29.61-2.1-3.11-4.2-6.21-6.29-9.32,0,0-51.49-78.61-70.15-107.37-1.29-1.99-4.03-3.51-.39-5.68,17.46,12.97,31.74,29.08,46.58,44.9,67.87,72.38,133.08,147.13,199.84,220.5,4.41,4.84,4.12,14.15,13.2,14.69Z" style="fill: #4e5769; stroke-width: 0px;"/>
  <path d="m220.38,451.6c-10.27,4.58-18.36,14.78-25.05,9.14-5.15-4.35,4.1-13.81,7.2-20.77,54.57-122.45,109.33-244.81,164.19-367.13,9.48-21.15,19.92-41.87,29.31-63.05C399.59,1.75,406.2.08,413.15.02c17.18-.15,34.37.68,51.56,1.05,6.52.14,13.93,3.5,13.84,8.54-.09,4.59-7.43,8.77-14.27,7.48-26.56-5.02-38.16,9.62-49.42,31.67-65.66,128.67-132.91,256.53-199.57,384.69-3.32,6.38-11,13.82,5.09,18.15Z" style="fill: #4e5769; stroke-width: 0px;"/>
  <path d="m304.11,195.69c-6.65,14.57-13.88,28.91-19.74,43.8-3.77,9.58-8.65,18.06-16.44,26.19C196.36,189.78,124.8,113.9,53.25,38.02c2.74-6.75,6.9-2.34,9.64-.61,11.43,7.23,22.51,15,33.75,22.52,52.58,35.2,104.86,70.86,157.94,105.28,16.22,10.52,30.25,24.86,49.53,30.48Z" style="fill: #4e5769; stroke-width: 0px;"/>
  <path d="m223.23,374.01c-8.69,19.87-17.45,39.71-26.02,59.63-1.85,4.29-4.94,8.88-8.67,9.23-4.34.41-4.91-5.74-6.37-9.26-34.73-83.75-69.28-167.57-103.95-251.34-8.25-19.93-16.81-39.72-25.22-59.58-1.69-3.98-4.18-7.84-2.13-12.46,12.06,17.74,24.65,35.15,36.08,53.29,35.93,57,71.17,114.42,107.25,171.32,8.67,13.68,14.75,29.54,29.02,39.18Z" style="fill: #4e5769; stroke-width: 0px;"/>
  <path d="m261.43,289.17c-9.07-.54-8.79-9.85-13.2-14.69C181.48,201.1,116.27,126.35,48.39,53.97,33.56,38.15,19.28,22.04,1.81,9.07,3.04-.43,5.75-1.46,12.88,5.81c49.7,50.66,97.18,103.37,144.79,155.96,32.11,35.46,64.29,70.87,95.69,106.95,4.43,5.09,16.59,9.39,8.07,20.45Z" style="fill: #808d99; stroke-width: 0px;"/>
  <path d="m304.11,195.69c-19.27-5.62-33.31-19.97-49.53-30.48-53.08-34.42-105.36-70.08-157.94-105.28-11.24-7.52-22.33-15.29-33.75-22.52-2.74-1.73-6.89-6.14-9.64.61-3.43-2.07-6.14-4.77-7.49-8.64,1.22-.84,2.44-1.68,3.66-2.53,6.04-2.39,11.06-1.16,16.59,2.56,76.39,51.42,153,102.51,229.31,154.03,3.83,2.59,12.45,3.56,8.79,12.25Z" style="fill: #808d99; stroke-width: 0px;"/>
  <path d="m223.23,374.01c-14.26-9.64-20.35-25.5-29.02-39.18-36.08-56.9-71.32-114.32-107.25-171.32-11.43-18.14-24.02-35.54-36.08-53.29,0,0,.21.23.21.23-.46-.8-.57-1.64-.33-2.53,2.42-2.27,73.23,99.26,90.03,126.58,25.56,41.53,52.19,82.4,77.95,123.8,2.74,4.4,9.52,8.68,4.48,15.7Z" style="fill: #808d99; stroke-width: 0px;"/>
  <path d="m45.76,29.38c-.38-1.15-1.41-2.96-1.03-3.33,1.66-1.62,3.28-.5,4.68.81-1.22.84-2.44,1.68-3.65,2.52Z" style="fill: #808d99; stroke-width: 0px;"/>
  <path d="m50.76,107.93c-.24.89-.13,1.73.33,2.53-.68-.08-1.84.02-1.96-.29-.54-1.38-.13-2.38,1.63-2.24Z" style="fill: #4e5769; stroke-width: 0px;"/>
</svg>